<?xml version="1.0" encoding="UTF-8" standalone="no"?>
<!DOCTYPE svg PUBLIC "-//W3C//DTD SVG 1.1//EN"
 "http://www.w3.org/Graphics/SVG/1.1/DTD/svg11.dtd">
<!-- Generated by graphviz version 2.40.1 (20161225.0304)
 -->
<!-- Title: piechart Pages: 1 -->
<svg width="159pt" height="53pt"
 viewBox="0.00 0.00 159.45 53.25" xmlns="http://www.w3.org/2000/svg" xmlns:xlink="http://www.w3.org/1999/xlink">
<g id="graph0" class="graph" transform="scale(1 1) rotate(0) translate(4 49.2548)">
<title>piechart</title>
<polygon fill="#ffffff" stroke="transparent" points="-4,4 -4,-49.2548 155.4453,-49.2548 155.4453,4 -4,4"/>
<!-- 1 -->
<g id="node1" class="node">
<title>1</title>
<path fill="#f7f4f9" stroke="#000000" stroke-width="0" d="M75.7227,-22.6274C75.7227,-22.6274 151.6686,-22.6274 151.6686,-22.6274 151.6686,-23.4535 151.5185,-24.279 151.2189,-25.1002 150.9193,-25.9214 150.4707,-26.7371 149.875,-27.5436 149.2794,-28.3502 148.5376,-29.1465 147.653,-29.9289 146.7683,-30.7113 145.7422,-31.4787 144.579,-32.2276 143.4159,-32.9766 142.1175,-33.706 140.6896,-34.4127 139.2617,-35.1194 137.7064,-35.8022 136.0307,-36.4582 134.355,-37.1142 132.5613,-37.7423 130.6576,-38.3399 128.7539,-38.9374 126.743,-39.5035 124.6339,-40.0355 122.5248,-40.5675 120.3205,-41.0647 118.0309,-41.5249 115.7413,-41.9851 113.3698,-42.4076 110.9268,-42.7905 108.4839,-43.1735 105.9732,-43.5162 103.4058,-43.8174 100.8385,-44.1185 98.2183,-44.3775 95.557,-44.5932 92.8956,-44.809 90.1971,-44.9811 87.4732,-45.1089 84.7494,-45.2368 82.0044,-45.32 79.2503,-45.3584 76.4962,-45.3968 73.7373,-45.3902 70.9856,-45.3387 68.2339,-45.2871 65.4937,-45.1908 62.777,-45.0499 62.777,-45.0499 75.7227,-22.6274 75.7227,-22.6274"/>
<path fill="#e7e1ef" stroke="#000000" stroke-width="0" d="M75.7227,-22.6274C75.7227,-22.6274 62.777,-45.0499 62.777,-45.0499 60.5948,-44.9368 58.4301,-44.7952 56.2891,-44.6254 54.1482,-44.4556 52.0331,-44.2578 49.9499,-44.0326 47.8667,-43.8074 45.8173,-43.555 43.8077,-43.2762 41.7981,-42.9973 39.8301,-42.6923 37.9095,-42.3619 35.9889,-42.0315 34.1174,-41.6761 32.3004,-41.2967 30.4835,-40.9173 28.7228,-40.5143 27.0234,-40.0887 25.324,-39.6632 23.6875,-39.2157 22.1186,-38.7473 20.5498,-38.2789 19.0501,-37.7902 17.6238,-37.2826 16.1975,-36.775 14.846,-36.2489 13.5731,-35.7059 12.3003,-35.1628 11.1073,-34.6034 9.9977,-34.0291 8.888,-33.4548 7.8627,-32.8663 6.9247,-32.2652 5.9868,-31.6641 5.137,-31.051 4.3778,-30.4276 3.6187,-29.8042 2.9509,-29.1712 2.3764,-28.5303 1.8019,-27.8895 1.3213,-27.2414 .9358,-26.5879 .5504,-25.9345 .2605,-25.2763 .067,-24.6153 -.1264,-23.9542 -.2233,-23.291 -.2233,-22.6274 -.2233,-21.9638 -.1264,-21.3006 .067,-20.6396 .2605,-19.9785 .5504,-19.3203 .9358,-18.6669 1.3213,-18.0134 1.8019,-17.3654 2.3764,-16.7245 2.9509,-16.0836 3.6187,-15.4506 4.3778,-14.8273 5.137,-14.2039 5.9868,-13.5908 6.9247,-12.9896 7.8627,-12.3885 8.888,-11.8 9.9977,-11.2257 11.1073,-10.6515 12.3003,-10.092 13.5731,-9.549 14.846,-9.0059 16.1975,-8.4799 17.6238,-7.9722 19.0501,-7.4646 20.5498,-6.9759 22.1186,-6.5075 23.6875,-6.0392 25.324,-5.5916 27.0234,-5.1661 28.7228,-4.7406 30.4835,-4.3375 32.3004,-3.9581 34.1174,-3.5788 35.9889,-3.2233 37.9095,-2.893 39.8301,-2.5626 41.7981,-2.2575 43.8077,-1.9787 45.8173,-1.6998 47.8667,-1.4474 49.9499,-1.2222 52.0331,-.997 54.1482,-.7993 56.2892,-.6295 58.4301,-.4597 60.5948,-.318 62.777,-.2049 62.777,-.2049 75.7227,-22.6274 75.7227,-22.6274"/>
<path fill="#d4b9da" stroke="#000000" stroke-width="0" d="M75.7227,-22.6274C75.7227,-22.6274 62.777,-.2049 62.777,-.2049 65.4937,-.0641 68.2339,.0323 70.9856,.0838 73.7373,.1354 76.4963,.1419 79.2503,.1036 82.0044,.0652 84.7494,-.0181 87.4732,-.1459 90.1971,-.2737 92.8956,-.4459 95.557,-.6616 98.2183,-.8773 100.8385,-1.1364 103.4058,-1.4375 105.9732,-1.7386 108.4839,-2.0814 110.9268,-2.4643 113.3698,-2.8472 115.7413,-3.2697 118.0309,-3.7299 120.3205,-4.1901 122.5248,-4.6873 124.6339,-5.2194 126.743,-5.7514 128.7539,-6.3174 130.6576,-6.915 132.5613,-7.5125 134.355,-8.1407 136.0307,-8.7966 137.7064,-9.4526 139.2617,-10.1355 140.6896,-10.8421 142.1175,-11.5488 143.4159,-12.2782 144.579,-13.0272 145.7422,-13.7762 146.7683,-14.5436 147.653,-15.326 148.5376,-16.1084 149.2794,-16.9046 149.875,-17.7112 150.4707,-18.5178 150.9193,-19.3335 151.2189,-20.1547 151.5185,-20.9759 151.6686,-21.8013 151.6686,-22.6274 151.6686,-22.6274 75.7227,-22.6274 75.7227,-22.6274"/>
<ellipse fill="none" stroke="#000000" stroke-width="0" cx="75.7227" cy="-22.6274" rx="75.946" ry="22.7556"/>
<text text-anchor="middle" x="75.7227" y="-16.6274" font-family="Times,serif" font-weight="bold" font-size="20.00" fill="#67001f">npm&#45;trends</text>
</g>
</g>
</svg>
